/vscmnt/brussel_pixiu_data/_data_brussel/112/vsc11236/PredSimResults/SUBJ04mtu3D/weighted-LRposFixed/expIG/worker_05.mot
version=1
nRows=6
nColumns=50
inDegrees=yes
endheader
                time	         pelvis_tilt	         pelvis_list	     pelvis_rotation	           pelvis_tx	           pelvis_ty	           pelvis_tz	       hip_flexion_r	     hip_adduction_r	      hip_rotation_r	        knee_angle_r	       ankle_angle_r	         mtp_angle_r	       hip_flexion_l	     hip_adduction_l	      hip_rotation_l	        knee_angle_l	       ankle_angle_l	         mtp_angle_l	    lumbar_extension	      lumbar_bending	     lumbar_rotation	 ercspn_r/activation	 intobl_r/activation	 extobl_r/activation	    abd_r/activation	    add_r/activation	hamstrings_r/activation	bifemsh_r/activation	glut_max_r/activation	iliopsoas_r/activation	rect_fem_r/activation	  vasti_r/activation	gastroc_r/activation	 soleus_r/activation	tib_ant_r/activation	 ercspn_l/activation	 intobl_l/activation	 extobl_l/activation	    abd_l/activation	    add_l/activation	hamstrings_l/activation	bifemsh_l/activation	glut_max_l/activation	iliopsoas_l/activation	rect_fem_l/activation	  vasti_l/activation	gastroc_l/activation	 soleus_l/activation	tib_ant_l/activation	
          0.00000000	         -5.84912364	         -4.68066001	         12.64412741	          0.00000000	          0.88341039	         -0.02324535	         25.01562312	         -0.04200312	         -5.66903978	          2.23660780	          5.47356957	          0.21544102	         -7.62233795	         -3.94098507	         16.39151769	         -7.84125598	         12.64471891	         22.34083285	         -2.61489847	          1.54761370	         -1.50086349	          0.09349626	          0.15821618	          0.02108284	          0.01893642	          0.10016407	          0.03551511	          0.01000000	          0.00999999	          0.05914388	          0.01489642	          0.02004334	          0.00999999	          0.00999999	          0.26959893	          0.03391371	          0.00999999	          0.00999999	          0.09598424	          0.00999999	          0.02112223	          0.15454391	          0.07961819	          0.34514886	          0.00999999	          0.00999999	          0.32827320	          0.29147349	          0.01522024	
          0.01402223	         -5.97449179	         -4.56306288	         12.52837678	          0.01493616	          0.88139343	         -0.02205208	         24.71988922	          0.24965651	         -4.47114960	          1.57124514	          5.09316721	          0.22203330	         -7.90644659	         -3.82087827	         15.60053266	         -9.03965923	         12.52037439	         23.98590961	         -2.31257692	          1.84914598	         -1.76242751	          0.07578501	          0.15133150	          0.01708906	          0.01534924	          0.14679134	          0.03152705	          0.00999999	          0.01382160	          0.04794009	          0.01207457	          0.01624648	          0.01545156	          0.01789785	          0.27023421	          0.06296504	          0.00999999	          0.00999999	          0.07780169	          0.02673232	          0.01883824	          0.12526824	          0.06977050	          0.31955210	          0.00999999	          0.00999999	          0.30826705	          0.28946651	          0.01233703	
          0.02804446	         -6.08161529	         -4.43881917	         12.34435733	          0.03029019	          0.87951757	         -0.02077090	         24.29184194	          0.53755087	         -3.29527709	          0.85529818	          4.69003005	          0.21351084	         -8.13293725	         -3.67179741	         14.74763789	        -10.43828828	         12.28087668	         25.69727850	         -1.98942391	          2.16592403	         -2.01456097	          0.06480496	          0.16457734	          0.01385183	          0.01754709	          0.11898427	          0.03404875	          0.03525869	          0.02711294	          0.03885867	          0.00999999	          0.01316887	          0.01252453	          0.01450741	          0.30796760	          0.07786108	          0.00999999	          0.00999999	          0.06306350	          0.04768399	          0.01653569	          0.10153834	          0.05655369	          0.28441063	          0.00999999	          0.00999999	          0.28289946	          0.28081087	          0.00999999	
          0.04206669	         -6.17162022	         -4.31395070	         12.08133156	          0.04585123	          0.87799549	         -0.01938311	         23.73530508	          0.84226130	         -2.19204668	          0.36655971	          4.13697150	          0.20007313	         -8.23530133	         -3.48945195	         13.84093199	        -12.11680493	         11.86772845	         27.46957507	         -1.66755452	          2.50660835	         -2.25432169	          0.06967821	          0.14433624	          0.01122784	          0.04483881	          0.09644486	          0.03477437	          0.02857954	          0.03952328	          0.03149757	          0.00999999	          0.01067425	          0.01015198	          0.01175924	          0.33556625	          0.10010381	          0.00999999	          0.00999999	          0.05111721	          0.04544958	          0.01707753	          0.08230366	          0.04584057	          0.24234138	          0.00999999	          0.00999999	          0.25198457	          0.26359635	          0.00999999	
          0.05608892	         -6.24468514	         -4.18813401	         11.73970147	          0.06145234	          0.87701650	         -0.01790260	         23.10311318	          1.16574272	         -1.17209429	         -0.02359799	          3.63806515	          0.18436302	         -8.17455987	         -3.27106194	         12.87514854	        -14.10376356	         11.21387637	         29.27406062	         -1.36044503	          2.87186147	         -2.47862361	          0.06607329	          0.11699424	          0.00999999	          0.06588549	          0.08274358	          0.03853693	          0.02316564	          0.04524432	          0.02553090	          0.00999999	          0.02443701	          0.00999999	          0.00999999	          0.36051599	          0.11918764	          0.00999999	          0.00999999	          0.04143394	          0.04752464	          0.01872747	          0.06671266	          0.03715687	          0.21140303	          0.00999999	          0.00999999	          0.20425045	          0.23758349	          0.00999999	
          0.07011115	         -6.30076221	         -4.05865205	         11.32418570	          0.07699024	          0.87666580	         -0.01634747	         22.41013694	          1.49879353	         -0.23399153	         -0.35286153	          3.27173166	          0.16963193	         -7.93318814	         -3.01729088	         11.83903672	        -16.40156104	         10.29908568	         31.01735694	         -1.07384821	          3.25465128	         -2.68288086	          0.05980777	          0.09483170	          0.00999999	          0.08941311	          0.07943573	          0.04262317	          0.01877731	          0.04094448	          0.02069451	          0.00999999	          0.03177362	          0.00999999	          0.00999999	          0.37137669	          0.13300435	          0.00999999	          0.00999999	          0.03358500	          0.05746975	          0.02451495	          0.05407510	          0.03011814	          0.19067188	          0.00999999	          0.00999999	          0.16555874	          0.19257741	          0.00999999	
